<mxfile host="app.diagrams.net" modified="2024-04-16T08:10:53.508Z" agent="Mozilla/5.0 (Windows NT 10.0; Win64; x64) AppleWebKit/537.36 (KHTML, like Gecko) Chrome/123.0.0.0 Safari/537.36" etag="-vO5L9i0jMPiJXDiCaYF" version="24.2.5" type="github">
  <diagram name="第 1 页" id="uMTuvYCUo3zKAktM4YIR">
    <mxGraphModel dx="1687" dy="876" grid="1" gridSize="10" guides="1" tooltips="1" connect="1" arrows="1" fold="1" page="1" pageScale="1" pageWidth="827" pageHeight="1169" math="0" shadow="0">
      <root>
        <mxCell id="0" />
        <mxCell id="1" parent="0" />
        <mxCell id="RHJ7mjwwuk4itrWGAwyF-9" style="edgeStyle=orthogonalEdgeStyle;rounded=0;orthogonalLoop=1;jettySize=auto;html=1;exitX=1;exitY=0.5;exitDx=0;exitDy=0;entryX=0;entryY=0.5;entryDx=0;entryDy=0;" edge="1" parent="1" source="RHJ7mjwwuk4itrWGAwyF-2" target="RHJ7mjwwuk4itrWGAwyF-4">
          <mxGeometry relative="1" as="geometry" />
        </mxCell>
        <mxCell id="RHJ7mjwwuk4itrWGAwyF-2" value="" style="whiteSpace=wrap;html=1;fillColor=#dae8fc;strokeColor=#6c8ebf;" vertex="1" parent="1">
          <mxGeometry x="40" y="400" width="40" height="80" as="geometry" />
        </mxCell>
        <mxCell id="RHJ7mjwwuk4itrWGAwyF-10" style="edgeStyle=orthogonalEdgeStyle;rounded=0;orthogonalLoop=1;jettySize=auto;html=1;exitX=1;exitY=0.5;exitDx=0;exitDy=0;entryX=0;entryY=0.5;entryDx=0;entryDy=0;" edge="1" parent="1" source="RHJ7mjwwuk4itrWGAwyF-4" target="RHJ7mjwwuk4itrWGAwyF-5">
          <mxGeometry relative="1" as="geometry" />
        </mxCell>
        <mxCell id="RHJ7mjwwuk4itrWGAwyF-4" value="" style="whiteSpace=wrap;html=1;fillColor=#dae8fc;strokeColor=#6c8ebf;" vertex="1" parent="1">
          <mxGeometry x="120" y="400" width="40" height="80" as="geometry" />
        </mxCell>
        <mxCell id="RHJ7mjwwuk4itrWGAwyF-11" style="edgeStyle=orthogonalEdgeStyle;rounded=0;orthogonalLoop=1;jettySize=auto;html=1;exitX=1;exitY=0.5;exitDx=0;exitDy=0;entryX=0;entryY=0.5;entryDx=0;entryDy=0;" edge="1" parent="1" source="RHJ7mjwwuk4itrWGAwyF-5" target="RHJ7mjwwuk4itrWGAwyF-6">
          <mxGeometry relative="1" as="geometry" />
        </mxCell>
        <mxCell id="RHJ7mjwwuk4itrWGAwyF-5" value="" style="whiteSpace=wrap;html=1;fillColor=#dae8fc;strokeColor=#6c8ebf;" vertex="1" parent="1">
          <mxGeometry x="200" y="400" width="40" height="80" as="geometry" />
        </mxCell>
        <mxCell id="RHJ7mjwwuk4itrWGAwyF-12" style="edgeStyle=orthogonalEdgeStyle;rounded=0;orthogonalLoop=1;jettySize=auto;html=1;exitX=1;exitY=0.5;exitDx=0;exitDy=0;entryX=0;entryY=0.5;entryDx=0;entryDy=0;" edge="1" parent="1" source="RHJ7mjwwuk4itrWGAwyF-6" target="RHJ7mjwwuk4itrWGAwyF-7">
          <mxGeometry relative="1" as="geometry" />
        </mxCell>
        <mxCell id="RHJ7mjwwuk4itrWGAwyF-45" style="edgeStyle=orthogonalEdgeStyle;rounded=0;orthogonalLoop=1;jettySize=auto;html=1;fillColor=#d5e8d4;strokeColor=#000000;" edge="1" parent="1" source="RHJ7mjwwuk4itrWGAwyF-6">
          <mxGeometry relative="1" as="geometry">
            <mxPoint x="300" y="340" as="targetPoint" />
          </mxGeometry>
        </mxCell>
        <mxCell id="RHJ7mjwwuk4itrWGAwyF-6" value="&lt;font style=&quot;font-size: 16px;&quot;&gt;h&lt;sub&gt;t&lt;/sub&gt;&lt;/font&gt;" style="whiteSpace=wrap;html=1;fillColor=#d5e8d4;strokeColor=#82b366;" vertex="1" parent="1">
          <mxGeometry x="280" y="400" width="40" height="80" as="geometry" />
        </mxCell>
        <mxCell id="RHJ7mjwwuk4itrWGAwyF-13" style="edgeStyle=orthogonalEdgeStyle;rounded=0;orthogonalLoop=1;jettySize=auto;html=1;" edge="1" parent="1" source="RHJ7mjwwuk4itrWGAwyF-7">
          <mxGeometry relative="1" as="geometry">
            <mxPoint x="440" y="440" as="targetPoint" />
          </mxGeometry>
        </mxCell>
        <mxCell id="RHJ7mjwwuk4itrWGAwyF-48" style="edgeStyle=orthogonalEdgeStyle;rounded=0;orthogonalLoop=1;jettySize=auto;html=1;" edge="1" parent="1" source="RHJ7mjwwuk4itrWGAwyF-7">
          <mxGeometry relative="1" as="geometry">
            <mxPoint x="380" y="340" as="targetPoint" />
          </mxGeometry>
        </mxCell>
        <mxCell id="RHJ7mjwwuk4itrWGAwyF-7" value="&lt;font style=&quot;font-size: 16px;&quot;&gt;h&lt;sub&gt;t+1&lt;/sub&gt;&lt;/font&gt;" style="whiteSpace=wrap;html=1;fillColor=#f8cecc;strokeColor=#b85450;" vertex="1" parent="1">
          <mxGeometry x="360" y="400" width="40" height="80" as="geometry" />
        </mxCell>
        <mxCell id="RHJ7mjwwuk4itrWGAwyF-15" value="&lt;span style=&quot;color: rgb(51, 51, 51); font-family: &amp;quot;Helvetica Neue&amp;quot;, Helvetica, Arial, &amp;quot;PingFang SC&amp;quot;, &amp;quot;Hiragino Sans GB&amp;quot;, &amp;quot;Microsoft YaHei&amp;quot;, &amp;quot;WenQuanYi Micro Hei&amp;quot;, sans-serif; font-size: 16px; text-align: start; text-indent: 28px;&quot;&gt;α&lt;sub style=&quot;&quot;&gt;t&lt;/sub&gt;&lt;/span&gt;" style="whiteSpace=wrap;html=1;fillColor=#dae8fc;fontSize=16;strokeColor=#6c8ebf;" vertex="1" parent="1">
          <mxGeometry x="120" y="280" width="40" height="40" as="geometry" />
        </mxCell>
        <mxCell id="RHJ7mjwwuk4itrWGAwyF-40" style="edgeStyle=orthogonalEdgeStyle;rounded=0;orthogonalLoop=1;jettySize=auto;html=1;fillColor=#f8cecc;strokeColor=#b85450;dashed=1;entryX=0;entryY=0.25;entryDx=0;entryDy=0;" edge="1" parent="1" source="RHJ7mjwwuk4itrWGAwyF-21" target="RHJ7mjwwuk4itrWGAwyF-7">
          <mxGeometry relative="1" as="geometry">
            <mxPoint x="360" y="380" as="targetPoint" />
            <Array as="points">
              <mxPoint x="340" y="300" />
              <mxPoint x="340" y="420" />
            </Array>
          </mxGeometry>
        </mxCell>
        <mxCell id="RHJ7mjwwuk4itrWGAwyF-21" value="c&lt;sub&gt;t&lt;/sub&gt;" style="whiteSpace=wrap;html=1;fillColor=#f8cecc;fontSize=16;align=center;strokeColor=#b85450;" vertex="1" parent="1">
          <mxGeometry x="200" y="280" width="40" height="40" as="geometry" />
        </mxCell>
        <mxCell id="RHJ7mjwwuk4itrWGAwyF-35" value="" style="endArrow=classic;html=1;rounded=0;fillColor=#f8cecc;strokeColor=#b85450;curved=0;" edge="1" parent="1" target="RHJ7mjwwuk4itrWGAwyF-21">
          <mxGeometry width="50" height="50" relative="1" as="geometry">
            <mxPoint x="60" y="400" as="sourcePoint" />
            <mxPoint x="300" y="320" as="targetPoint" />
          </mxGeometry>
        </mxCell>
        <mxCell id="RHJ7mjwwuk4itrWGAwyF-36" value="" style="endArrow=classic;html=1;rounded=0;fillColor=#f8cecc;strokeColor=#b85450;exitX=0.5;exitY=0;exitDx=0;exitDy=0;curved=0;" edge="1" parent="1" source="RHJ7mjwwuk4itrWGAwyF-4" target="RHJ7mjwwuk4itrWGAwyF-21">
          <mxGeometry width="50" height="50" relative="1" as="geometry">
            <mxPoint x="70" y="410" as="sourcePoint" />
            <mxPoint x="310" y="320" as="targetPoint" />
          </mxGeometry>
        </mxCell>
        <mxCell id="RHJ7mjwwuk4itrWGAwyF-37" value="" style="endArrow=classic;html=1;rounded=0;fillColor=#f8cecc;strokeColor=#b85450;curved=0;" edge="1" parent="1" target="RHJ7mjwwuk4itrWGAwyF-21">
          <mxGeometry width="50" height="50" relative="1" as="geometry">
            <mxPoint x="220" y="400" as="sourcePoint" />
            <mxPoint x="270" y="350" as="targetPoint" />
          </mxGeometry>
        </mxCell>
        <mxCell id="RHJ7mjwwuk4itrWGAwyF-38" value="" style="endArrow=classic;html=1;rounded=0;fillColor=#f8cecc;strokeColor=#b85450;curved=0;" edge="1" parent="1" target="RHJ7mjwwuk4itrWGAwyF-21">
          <mxGeometry width="50" height="50" relative="1" as="geometry">
            <mxPoint x="300" y="400" as="sourcePoint" />
            <mxPoint x="350" y="350" as="targetPoint" />
          </mxGeometry>
        </mxCell>
        <mxCell id="RHJ7mjwwuk4itrWGAwyF-39" value="" style="endArrow=classic;html=1;rounded=0;fillColor=#f8cecc;strokeColor=#b85450;entryX=0;entryY=0.5;entryDx=0;entryDy=0;curved=0;exitX=1;exitY=0.5;exitDx=0;exitDy=0;" edge="1" parent="1" source="RHJ7mjwwuk4itrWGAwyF-15" target="RHJ7mjwwuk4itrWGAwyF-21">
          <mxGeometry width="50" height="50" relative="1" as="geometry">
            <mxPoint x="200" y="300" as="sourcePoint" />
            <mxPoint x="250" y="250" as="targetPoint" />
          </mxGeometry>
        </mxCell>
        <mxCell id="RHJ7mjwwuk4itrWGAwyF-41" value="" style="endArrow=classic;html=1;rounded=0;fillColor=#dae8fc;strokeColor=#6c8ebf;" edge="1" parent="1" target="RHJ7mjwwuk4itrWGAwyF-15">
          <mxGeometry width="50" height="50" relative="1" as="geometry">
            <mxPoint x="60" y="400" as="sourcePoint" />
            <mxPoint x="110" y="350" as="targetPoint" />
          </mxGeometry>
        </mxCell>
        <mxCell id="RHJ7mjwwuk4itrWGAwyF-42" value="" style="endArrow=classic;html=1;rounded=0;fillColor=#dae8fc;strokeColor=#6c8ebf;" edge="1" parent="1" target="RHJ7mjwwuk4itrWGAwyF-15">
          <mxGeometry width="50" height="50" relative="1" as="geometry">
            <mxPoint x="140" y="400" as="sourcePoint" />
            <mxPoint x="170" y="327" as="targetPoint" />
          </mxGeometry>
        </mxCell>
        <mxCell id="RHJ7mjwwuk4itrWGAwyF-43" value="" style="endArrow=classic;html=1;rounded=0;fillColor=#dae8fc;strokeColor=#6c8ebf;" edge="1" parent="1" target="RHJ7mjwwuk4itrWGAwyF-15">
          <mxGeometry width="50" height="50" relative="1" as="geometry">
            <mxPoint x="220" y="400" as="sourcePoint" />
            <mxPoint x="180" y="337" as="targetPoint" />
          </mxGeometry>
        </mxCell>
        <mxCell id="RHJ7mjwwuk4itrWGAwyF-44" value="" style="endArrow=classic;html=1;rounded=0;fillColor=#dae8fc;strokeColor=#6c8ebf;" edge="1" parent="1" target="RHJ7mjwwuk4itrWGAwyF-15">
          <mxGeometry width="50" height="50" relative="1" as="geometry">
            <mxPoint x="300" y="400" as="sourcePoint" />
            <mxPoint x="190" y="347" as="targetPoint" />
          </mxGeometry>
        </mxCell>
        <mxCell id="RHJ7mjwwuk4itrWGAwyF-47" value="&lt;span style=&quot;font-size: 16px;&quot;&gt;y&lt;sub&gt;t&lt;/sub&gt;&lt;/span&gt;" style="text;html=1;align=center;verticalAlign=middle;resizable=0;points=[];autosize=1;strokeColor=none;fillColor=none;" vertex="1" parent="1">
          <mxGeometry x="280" y="310" width="40" height="40" as="geometry" />
        </mxCell>
        <mxCell id="RHJ7mjwwuk4itrWGAwyF-49" value="&lt;span style=&quot;font-size: 16px;&quot;&gt;y&lt;sub&gt;t+1&lt;/sub&gt;&lt;/span&gt;" style="text;html=1;align=center;verticalAlign=middle;resizable=0;points=[];autosize=1;strokeColor=none;fillColor=none;" vertex="1" parent="1">
          <mxGeometry x="355" y="310" width="50" height="40" as="geometry" />
        </mxCell>
      </root>
    </mxGraphModel>
  </diagram>
</mxfile>
